    <svg
    id="Layer_1"
    data-name="Layer 1"
    xmlns="http://www.w3.org/2000/svg"
    viewBox="0 0 748.112 703.639"
>
    <path
        d="M722.382,0c30.541.419,24.874,26.722,24.551,55.564-.006,50.582,6.811,117.458-12.275,149.246-21.209,35.89-62.7,55.239-96.267,78.822-59,40.7-118.025,81.8-177.029,122.111C432.547,425.769,403.211,446,374.14,465.829c-55.046-38.546-111.132-77.1-166.69-115.65,45.221-31.224,90.84-62.458,135.678-93.683L570.551,100.79C619.978,66.011,667.222,28.848,722.382,0Z"
        style="fill:#049669;fill-rule:evenodd"
    />
    <path
        d="M165.048,582.105c7.063,4.762,7.063,15.768,0,20.319L17.841,701.675C10.142,706.865,0,701.181,0,691.515v-198.5c0-9.576,10.142-15.35,17.841-10.161Z"
        style="fill:#049669; fill-rule:evenodd"
    />
    <path
        d="M20.027,0C46.4,6.62,61.147,20.846,80.275,34.335L178.1,101.707q181.373,125.017,362.781,250.06h-1.3c-54.547,38.218-110.135,76.767-165.195,114.664L117.2,288.928C78.042,261.359,31.192,240.283,9.014,195.642c-14.108-28.4-7.32-93.97-7.774-135.395,0-15.821-2.714-38.149,2.592-49.882C7,3.354,12.664,3.07,20.027,0Z"
        style="fill:#6bc8c4;fill-rule:evenodd;isolation:isolate;opacity:0.5019999742507935"
    />
    <path
        d="M586.949,601.591a11.227,11.227,0,0,1,0-18.86L729.8,490.437a11.242,11.242,0,0,1,17.32,9.576V684.455c0,8.895-9.849,14.257-17.32,9.947Z"
        style="fill:#6bc8c4;fill-rule:evenodd;isolation:isolate;opacity:0.5019999742507935"
    />
</svg>
